<?xml version="1.0" encoding="UTF-8"?>
<svg id="Ebene_1" xmlns="http://www.w3.org/2000/svg" version="1.1" viewBox="0 0 841.89 1190.55">
  <!-- Generator: Adobe Illustrator 30.1.0, SVG Export Plug-In . SVG Version: 2.1.1 Build 136)  -->
  <defs>
    <style>
      .st0 {
        fill: #1d1d1b;
      }
    </style>
  </defs>
  <path class="st0" d="M556.95,910.63c-43.4-32.99-92.45-14.4-131.59,15.1-14.36,10.82-20.73,17.58-20.73,14.88,0-47.35,82.96-77.1,82.96-77.1-10.63.52-26.4-.44-36.8-2.4-33.62-6.36-68.49-20.6-94.02-42.23,0,0,13.1,34.98,3.19,40.57-9.58,5.41-34.45-11.42-39.88-14.88-25.53-16.23-41.07-30.69-62.95-46.79-42.55-31.28-84.59-74.14-155.59-51.96-30.31,9.47-53.1,28.41-52.65,44.64,1.59,56.8,228.13,74.39,228.13,74.39l98.52,7.97c2.78.09,2.76,3.59-.01,3.67,0,0-53.6,2.87-71.39,4.61-76.57,7.45-134.3,25.62-83.63,98.61,35.77,51.53,74.06,89.41,113.68,138.5,1.81,2.5,3.94,3.64,7.28,2.01,2.94-1.45,12.55-12.78,15.99-15.88,33.11-29.87,75.16-50.12,122.95-43.08,7.84,1.16,30.08,8.83,30.08,8.83-69.05-58.2-158.12-105.23-236.44-154.05-3.55-7.26,5.38-3.96,9.72-2.74,43.15,12.02,95.85,25.87,138.42,39.5,35.59,11.41,75.6,22.88,111.3,32.99,18.38,5.21,40.96,11.86,50.38-8.13,9.89-21.04-8.17-52.79-26.88-67.02h-.01Z"/>
  <path class="st0" d="M567.81,817.1l-98.52-7.97c-2.78-.09-2.76-3.59.01-3.67,0,0,53.6-2.87,71.39-4.61,76.57-7.45,134.3-25.62,83.63-98.61-35.77-51.53-74.06-89.41-113.68-138.5-1.81-2.5-3.94-3.64-7.28-2.01-2.94,1.45-12.55,12.78-15.99,15.88-33.11,29.87-75.16,50.12-122.95,43.08-7.84-1.16-30.08-8.83-30.08-8.83,69.05,58.2,158.12,105.23,236.44,154.05,3.55,7.26-5.38,3.96-9.72,2.74-43.15-12.02-95.85-25.87-138.42-39.5-35.59-11.41-75.6-22.88-111.3-32.99-18.38-5.21-40.96-11.86-50.38,8.13-9.89,21.04,8.17,52.79,26.88,67.02,43.4,32.99,92.45,14.4,131.59-15.1,14.36-10.82,20.73-17.58,20.73-14.88,0,47.35-82.96,77.1-82.96,77.1,10.63-.52,26.4.44,36.8,2.4,33.62,6.36,68.49,20.6,94.02,42.23,0,0-13.1-34.98-3.19-40.57,9.58-5.41,34.45,11.42,39.88,14.88,25.53,16.23,41.07,30.69,62.95,46.79,42.55,31.28,84.59,74.14,155.59,51.96,30.31-9.47,53.1-28.41,52.65-44.64-1.59-56.8-228.13-74.39-228.13-74.39h.01Z"/>
  <path class="st0" d="M274.08,353.26l98.52,7.97c2.78.09,2.76,3.59-.01,3.67,0,0-53.6,2.87-71.39,4.61-76.57,7.45-134.3,25.62-83.63,98.61,35.77,51.53,74.06,89.41,113.68,138.5,1.81,2.5,3.94,3.64,7.28,2.01,2.94-1.45,12.55-12.78,15.99-15.88,33.11-29.87,75.16-50.12,122.95-43.08,7.84,1.16,30.08,8.83,30.08,8.83-69.05-58.2-158.12-105.23-236.44-154.05-3.55-7.26,5.38-3.96,9.72-2.74,43.15,12.02,95.85,25.87,138.42,39.5,35.59,11.41,75.6,22.88,111.3,32.99,18.38,5.21,40.96,11.86,50.38-8.13,9.89-21.04-8.17-52.79-26.88-67.02-43.4-32.99-92.45-14.4-131.59,15.1-14.36,10.82-20.73,17.58-20.73,14.88,0-47.35,82.96-77.1,82.96-77.1-10.63.52-26.4-.44-36.8-2.4-33.62-6.36-68.49-20.6-94.02-42.23,0,0,13.1,34.98,3.19,40.57-9.58,5.41-34.45-11.42-39.88-14.88-25.53-16.23-41.07-30.69-62.95-46.79-42.55-31.28-84.59-74.14-155.59-51.96-30.31,9.47-53.1,28.41-52.65,44.64,1.59,56.8,228.13,74.39,228.13,74.39h-.01Z"/>
  <path class="st0" d="M279.29,262.05c43.4,32.99,92.45,14.4,131.59-15.1,14.36-10.82,20.73-17.58,20.73-14.88,0,47.35-82.96,77.1-82.96,77.1,10.63-.52,26.4.44,36.8,2.4,33.62,6.36,68.49,20.6,94.02,42.23,0,0-13.1-34.98-3.19-40.57,9.58-5.41,34.45,11.42,39.88,14.88,25.53,16.23,41.07,30.69,62.95,46.79,42.55,31.28,84.59,74.14,155.59,51.96,30.31-9.47,53.1-28.41,52.65-44.64-1.59-56.8-228.13-74.39-228.13-74.39l-98.52-7.97c-2.78-.09-2.76-3.59.01-3.67,0,0,53.6-2.87,71.39-4.61,76.57-7.45,134.3-25.62,83.63-98.61-35.77-51.53-74.06-89.41-113.68-138.5-1.81-2.5-3.94-3.64-7.28-2.01-2.94,1.45-12.55,12.78-15.99,15.88-33.11,29.87-75.16,50.12-122.95,43.08-7.84-1.16-30.08-8.83-30.08-8.83,69.05,58.2,158.12,105.23,236.44,154.05,3.55,7.26-5.38,3.96-9.72,2.74-43.15-12.02-95.85-25.87-138.42-39.5-35.59-11.41-75.6-22.88-111.3-32.99-18.38-5.21-40.96-11.86-50.38,8.13-9.89,21.04,8.17,52.79,26.88,67.02h.01Z"/>
</svg>