<?xml version="1.0" encoding="UTF-8"?>
<svg id="Ebene_2" data-name="Ebene 2" xmlns="http://www.w3.org/2000/svg" viewBox="0 0 37.54 39.32">
  <defs>
    <style>
      .cls-1 {
        fill: #1d1d1b;
      }
    </style>
  </defs>
  <g id="Ebene_1-2" data-name="Ebene 1">
    <path class="cls-1" d="M18.19,37.73c.38,0,.72-.24.72-.67,0-.48-.1-.58-.1-1.15,0-1.06.86-1.78,1.92-1.78,1.25,0,2.02.96,2.02,2.11,0,2.02-1.87,3.07-3.7,3.07-4.13,0-5.28-4.61-9.6-7.58-2.3-1.58-3.89-2.93-3.89-5.71,0-2.64,1.82-4.42,4.32-4.42,1.54,0,2.69.86,3.36,1.82-.05-.48-.1-.96-.1-1.44,0-2.3.96-4.18,2.45-5.66-.82-.77-1.44-1.68-2.02-2.54-2.54.91-5.09,1.49-7.87,1.49-3.6,0-5.71-1.54-5.71-3.55,0-2.74,4.32-3.94,7.49-3.94,4.8,0,7.73,1.25,9.74,3.17,4.13-1.82,7.68-4.27,7.68-6.58,0-1.34-.86-2.06-1.87-2.06-1.3,0-1.82,1.15-3.12,2.16-.91.72-2.16,1.39-4.37,1.39-3.89,0-6.14-2.45-6.77-4.66-.24-.82.91-1.2,1.25-.43.43,1.01,1.3,2.02,3.31,2.02,1.44,0,2.45-.62,3.31-1.2,1.01-.72,1.97-1.58,4.13-1.58,3.31,0,5.42,1.97,5.42,4.37,0,3.36-5.04,6.29-8.11,7.58,1.3,1.54,3.02,4.18,5.95,4.18,1.78,0,3.07-.67,4.18-1.34.96-.58,2.16-1.2,3.79-1.2,3.07,0,5.52,2.26,5.52,5.42,0,2.93-1.97,6.53-5.18,6.53-1.78,0-2.79-1.1-2.79-2.35,0-1.78,1.34-2.5,2.69-3.22,1.2-.72,2.4-1.44,2.4-2.88,0-1.06-.91-2.21-2.59-2.21s-2.78.82-4.18,1.68c-1.58.96-3.41,2.02-6.48,2.02-2.16,0-3.7-.58-4.85-1.44-1.25,1.25-2.11,2.88-2.11,4.85,0,.53.05,1.06.14,1.63.72-.67,1.68-1.2,2.88-1.2,2.4,0,4.13,1.63,4.13,3.84,0,2.02-1.34,3.46-2.64,4.61-1.49,1.39-3.07,2.4-3.07,4.03,0,1.39.82,2.83,2.3,2.83ZM7.25,9.07c-2.21,0-4.13,1.2-4.13,2.64,0,1.06.96,2.21,3.36,2.21,1.97,0,4.08-.48,6.34-1.25-1.2-1.68-2.88-3.6-5.57-3.6Z"/>
  </g>
</svg>