<?xml version="1.0" encoding="UTF-8"?>
<svg id="Ebene_2" data-name="Ebene 2" xmlns="http://www.w3.org/2000/svg" viewBox="0 0 19.63 17.96">
  <g id="Ebene_1-2" data-name="Ebene 1">
    <g id="_9lYoy6.tif" data-name="9lYoy6.tif">
      <path d="M1.4,10.41c-.46.44-1.28.19-1.38-.45-.07-.45.13-1.46.24-1.94C1.77,1.39,9.24-2.21,15.21,1.47c4.83,2.98,5.97,9.52,2.08,13.79-3.36,3.69-9.33,3.61-12.43-.36-2.81-3.6-1.68-9.11,2.53-11.02s9.63,1.39,8.86,6.28c-.56,3.52-4.43,5.76-7.61,3.77-2.28-1.43-2.84-4.7-.71-6.53,1.57-1.36,4.31-.98,5.01,1.09.49,1.46-.58,3.34-2.24,2.93-.96-.24-.89-1.64.29-1.62.17,0,.18.07.32-.12.5-.73-.48-1.46-1.18-1.46-1.67-.01-2.29,2.09-1.53,3.39,1.12,1.92,3.84,1.79,5.19.17,2.27-2.74.01-6.6-3.3-6.82-4.96-.33-7.26,5.84-3.96,9.36,3.01,3.21,8.1,2.42,10.36-1.23,2.93-4.73-.25-10.49-5.52-11.34C6.37.94,2.27,4.7,1.66,9.51c-.04.35.02.62-.26.9Z"/>
    </g>
  </g>
</svg>