<?xml version="1.0" encoding="UTF-8"?>
<svg id="Ebene_2" data-name="Ebene 2" xmlns="http://www.w3.org/2000/svg" viewBox="0 0 20.62 21.51">
  <defs>
    <style>
      .cls-1 {
        fill: #1d1d1b;
      }
    </style>
  </defs>
  <g id="Ebene_1-2" data-name="Ebene 1">
    <path class="cls-1" d="M5.66,4.65c0,.58.11,1.13.3,1.64-.41-.12-.85-.19-1.31-.19-2.57,0-4.65,2.08-4.65,4.65s2.08,4.65,4.65,4.65c.45,0,.89-.07,1.31-.19-.19.51-.3,1.06-.3,1.64,0,2.57,2.08,4.65,4.65,4.65s4.65-2.08,4.65-4.65c0-.58-.11-1.13-.3-1.64.41.12.85.19,1.31.19,2.57,0,4.65-2.08,4.65-4.65s-2.08-4.65-4.65-4.65c-.45,0-.89.07-1.31.19.19-.51.3-1.06.3-1.64,0-2.57-2.08-4.65-4.65-4.65s-4.65,2.08-4.65,4.65Z"/>
  </g>
</svg>