<?xml version="1.0" encoding="UTF-8"?>
<svg id="Ebene_2" data-name="Ebene 2" xmlns="http://www.w3.org/2000/svg" viewBox="0 0 22.13 20.22">
  <g id="Ebene_1-2" data-name="Ebene 1">
    <g id="FcMlsz.tif">
      <path d="M5.36.02c2.19-.12,4.1.95,5.35,2.69.05.07.31.52.34.52.03,0,.04-.02.05-.03.11-.15.2-.33.32-.49,1.85-2.56,5.18-3.57,8-1.89,2.59,1.55,3.02,4.35,2.53,7.13-.52,2.95-2.43,4.74-4.56,6.64-1.33,1.19-2.7,2.32-4.03,3.51-.77.69-1.53,1.4-2.29,2.12-.83-.77-1.66-1.55-2.51-2.3-1.93-1.72-4.12-3.4-5.88-5.28C.71,10.53-.14,8.3.02,5.36S2.47.18,5.36.02Z"/>
    </g>
  </g>
</svg>