<?xml version="1.0" encoding="UTF-8"?>
<svg id="Ebene_2" data-name="Ebene 2" xmlns="http://www.w3.org/2000/svg" viewBox="0 0 19.34 17.57">
  <defs>
    <style>
      .cls-1 {
        fill: #1d1d1b;
      }
    </style>
  </defs>
  <g id="Ebene_1-2" data-name="Ebene 1">
    <path class="cls-1" d="M19.34,7.65c0-2.11-1.71-3.82-3.82-3.82-.77,0-1.48.23-2.08.61.03-.2.05-.41.05-.61,0-2.11-1.71-3.82-3.82-3.82s-3.82,1.71-3.82,3.82c0,.21.02.41.05.61-.6-.39-1.31-.61-2.08-.61-2.11,0-3.82,1.71-3.82,3.82,0,1.99,1.52,3.62,3.46,3.81-.48.64-.77,1.43-.77,2.29,0,2.11,1.71,3.82,3.82,3.82,1.31,0,2.46-.66,3.15-1.66.69,1,1.84,1.66,3.15,1.66,2.11,0,3.82-1.71,3.82-3.82,0-.86-.29-1.65-.77-2.29,1.94-.18,3.46-1.82,3.46-3.81Z"/>
  </g>
</svg>