<?xml version="1.0" encoding="UTF-8"?>
<svg id="Ebene_2" data-name="Ebene 2" xmlns="http://www.w3.org/2000/svg" viewBox="0 0 29.82 36.44">
  <defs>
    <style>
      .cls-1 {
        fill: #1d1d1b;
      }
    </style>
  </defs>
  <g id="Ebene_1-2" data-name="Ebene 1">
    <path class="cls-1" d="M2.64,34.9c-1.21-1.14-2.01-2.56-2.4-4.24-.38-1.68-.31-3.41.22-5.19.53-1.78,1.47-3.37,2.81-4.79,1.62-1.72,3.54-2.94,5.74-3.66,2.2-.71,4.3-.75,6.3-.1-.65-.21-1.23-.55-1.72-1.02-.85-.8-1.29-1.79-1.33-2.96-.03-1.17.35-2.18,1.15-3.03.86-.91,1.91-1.38,3.15-1.41,1.25-.03,2.32.38,3.22,1.23,1.01.95,1.59,2.05,1.74,3.3.15,1.25-.12,2.58-.83,3.99.97-.2,2.02-.6,3.13-1.22,1.11-.62,2.01-1.29,2.7-2.02,1.38-1.47,2.1-3.18,2.15-5.16.05-1.97-.63-3.63-2.05-4.97-.1.37-.31.73-.64,1.08-.52.56-1.17.85-1.95.87-.77.02-1.44-.23-1.99-.75s-.85-1.18-.88-1.96c-.03-.78.22-1.45.74-2,.64-.68,1.46-.98,2.46-.88,1,.1,1.98.6,2.95,1.51,1.1,1.04,1.84,2.33,2.22,3.89.38,1.55.36,3.14-.07,4.76-.43,1.62-1.19,3.02-2.31,4.2-.63.67-1.57,1.39-2.82,2.16-1.25.77-2.3,1.26-3.17,1.46.7.13,1.45.38,2.26.74.81.36,1.42.74,1.84,1.13.85.8,1.29,1.82,1.33,3.05.04,1.24-.34,2.28-1.14,3.13s-1.79,1.29-2.96,1.33c-1.17.03-2.18-.35-3.03-1.15-.59-.56-.99-1.23-1.2-2.03-.17.34-.29.54-.35.61-.69.74-1.54,1.18-2.54,1.34-1,.16-2.64-.05-4.91-.6-2.25-.56-3.89-.76-4.9-.6-1.02.16-1.87.6-2.56,1.33s-1.14,1.59-1.33,2.55c-.19.96-.13,1.96.19,3,.32,1.03.78,1.84,1.39,2.4s1.26.88,1.95.92c.69.04,1.27-.2,1.75-.7.3-.32.45-.68.44-1.07,0-.4-.17-.74-.48-1.03-.2-.19-.41-.34-.63-.45.4-.42.85-.64,1.35-.65.5-.01.95.18,1.37.56.45.42.67.97.66,1.62-.01.66-.25,1.23-.71,1.72-.86.91-1.87,1.34-3.03,1.28-1.16-.05-2.26-.56-3.29-1.53Z"/>
  </g>
</svg>